<svg width="570" height="570" xmlns="http://www.w3.org/2000/svg" xmlns:xlink="http://www.w3.org/1999/xlink">
    <defs>
        <path id="a" d="M0 0h1600v960H0z"/>
    </defs>
    <g fill="none" fill-rule="evenodd">
        <mask id="b" fill="#fff">
            <use xlink:href="#a"/>
        </mask>
        <path d="M566.432 219.838S471.932 97.374 350.982 43.8c86.55-100.022 119.815-251.092 119.815-251.092s-155.218-2.535-272.613 58.915C173.824-278.627 75.802-399 75.802-399s-97.948 119.41-123.08 249.175c-116.803-61.87-271.239-60.545-271.239-60.545s32.252 152.098 118.522 252.795C-321.57 95.35-417 218.11-417 218.11s137.87 68.38 269.757 63.985c-34.12 127.467 1.3 277.229 1.3 277.229S-5.127 494.302 73.984 388.075C152.395 494.821 292.79 560.772 292.79 560.772s36.531-150.082 2.93-277.928c132.093 5.135 270.711-63.006 270.711-63.006" fill="#FABF0D" fill-rule="nonzero" mask="url(#b)"/>
        <path d="M-47.284-150C-59.777-85.488-54.254-18.418-9.757 37.823c-28.376-13.579-57.13-19.38-85.547-19.38-35.913 0-71.292 9.266-104.696 23.808 42.308 49.377 97.594 86.402 168.45 87.06-64.461 31.174-98.713 89.118-115.707 152.61 65.54-2.19 129.591-22.344 174.533-77.795-15.357 69.112 8.196 131.36 46.702 183.774 38.992-52.348 62.99-114.703 47.748-184.218 44.596 55.854 108.482 76.428 173.99 78.979-16.616-63.22-50.39-121.016-114.218-152.519 71.078-.214 126.768-37.148 169.48-86.517-33.849-14.994-69.771-24.582-106.27-24.582-28.185-.008-56.7 5.712-84.895 19.077 44.456-55.789 50.381-122.432 38.366-186.68v.008C140.366-118.292 91.721-72.51 75.329-3.242 59.386-72.996 10.7-119.287-47.285-150" fill="#FF5100" mask="url(#b)"/>
    </g>
</svg>
